<?xml version="1.0" encoding="UTF-8"?>
<!DOCTYPE svg PUBLIC "-//W3C//DTD SVG 1.1//EN" "http://www.w3.org/Graphics/SVG/1.1/DTD/svg11.dtd">
<svg xmlns="http://www.w3.org/2000/svg" version="1.1" width="965px" height="207px" style="shape-rendering:geometricPrecision; text-rendering:geometricPrecision; image-rendering:optimizeQuality; fill-rule:evenodd; clip-rule:evenodd" xmlns:xlink="http://www.w3.org/1999/xlink">
<g><path style="opacity:1" fill="#fefefd" d="M -0.5,-0.5 C 321.167,-0.5 642.833,-0.5 964.5,-0.5C 964.5,68.5 964.5,137.5 964.5,206.5C 642.833,206.5 321.167,206.5 -0.5,206.5C -0.5,137.5 -0.5,68.5 -0.5,-0.5 Z"/></g>
<g><path style="opacity:1" fill="#5a6f0e" d="M 98.5,4.5 C 108.828,4.3258 113.328,9.3258 112,19.5C 107.672,26.6959 101.838,28.1959 94.5,24C 93.2986,23.0975 92.4652,21.9308 92,20.5C 89.7242,13.1262 91.8909,7.7929 98.5,4.5 Z"/></g>
<g><path style="opacity:1" fill="#6e8514" d="M 62.5,9.5 C 71.4815,11.3839 76.3148,17.0506 77,26.5C 77.6667,32.5 77.6667,38.5 77,44.5C 67.9288,38.0275 62.0954,29.3609 59.5,18.5C 59.9091,15.2727 60.9091,12.2727 62.5,9.5 Z"/></g>
<g><path style="opacity:1" fill="#708615" d="M 230.5,31.5 C 251.5,31.5 272.5,31.5 293.5,31.5C 293.5,32.5 293.5,33.5 293.5,34.5C 284.883,32.9008 278.05,35.5675 273,42.5C 272.5,61.4971 272.333,80.4971 272.5,99.5C 294.833,99.5 317.167,99.5 339.5,99.5C 339.667,80.8304 339.5,62.1637 339,43.5C 337.737,39.7811 335.237,37.2811 331.5,36C 327.249,34.8054 322.915,34.3054 318.5,34.5C 318.5,33.5 318.5,32.5 318.5,31.5C 339.5,31.5 360.5,31.5 381.5,31.5C 381.5,32.5 381.5,33.5 381.5,34.5C 374.19,33.2148 368.024,35.2148 363,40.5C 362.138,42.087 361.471,43.7536 361,45.5C 360.833,65 360.667,84.5 360.5,104C 360.356,124.882 360.856,145.715 362,166.5C 366.648,173.335 373.148,176.002 381.5,174.5C 381.5,175.5 381.5,176.5 381.5,177.5C 360.5,177.5 339.5,177.5 318.5,177.5C 318.5,176.5 318.5,175.5 318.5,174.5C 324.533,175.035 330.199,173.868 335.5,171C 336.701,170.097 337.535,168.931 338,167.5C 339.452,147.554 339.952,127.554 339.5,107.5C 317.167,107.5 294.833,107.5 272.5,107.5C 272.333,126.836 272.5,146.17 273,165.5C 274.549,170.042 277.716,172.875 282.5,174C 286.152,174.499 289.818,174.665 293.5,174.5C 293.5,175.5 293.5,176.5 293.5,177.5C 272.5,177.5 251.5,177.5 230.5,177.5C 230.5,176.5 230.5,175.5 230.5,174.5C 237.81,175.785 243.976,173.785 249,168.5C 249.333,167.5 249.667,166.5 250,165.5C 251.125,144.531 251.625,123.531 251.5,102.5C 251.643,82.451 251.143,62.451 250,42.5C 248.437,39.2716 245.937,37.1049 242.5,36C 238.582,34.8436 234.582,34.3436 230.5,34.5C 230.5,33.5 230.5,32.5 230.5,31.5 Z"/></g>
<g><path style="opacity:1" fill="#6f8613" d="M 389.5,31.5 C 415.522,31.1337 441.522,31.6337 467.5,33C 492.669,36.8199 504.503,51.3199 503,76.5C 500.215,88.2824 493.381,96.7824 482.5,102C 477.749,103.748 473.082,105.581 468.5,107.5C 480.473,124.639 492.639,141.639 505,158.5C 512.48,168.157 522.313,173.49 534.5,174.5C 534.5,175.5 534.5,176.5 534.5,177.5C 521.496,177.667 508.496,177.5 495.5,177C 479.167,154.667 462.833,132.333 446.5,110C 441.177,109.501 435.844,109.334 430.5,109.5C 430.333,125.837 430.5,142.17 431,158.5C 432.138,171.672 439.305,177.005 452.5,174.5C 452.5,175.5 452.5,176.5 452.5,177.5C 431.5,177.5 410.5,177.5 389.5,177.5C 389.5,176.5 389.5,175.5 389.5,174.5C 401.215,176.582 408.049,171.916 410,160.5C 410.167,141.5 410.333,122.5 410.5,103.5C 410.643,83.1178 410.143,62.7844 409,42.5C 404.352,35.6648 397.852,32.9982 389.5,34.5C 389.5,33.5 389.5,32.5 389.5,31.5 Z"/></g>
<g><path style="opacity:1" fill="#6f8614" d="M 658.5,140.5 C 658.56,141.043 658.893,141.376 659.5,141.5C 660.83,112.003 660.83,82.6694 659.5,53.5C 660.38,38.7404 653.38,32.4071 638.5,34.5C 638.5,33.5 638.5,32.5 638.5,31.5C 655.833,31.5 673.167,31.5 690.5,31.5C 690.5,32.5 690.5,33.5 690.5,34.5C 684.07,33.6041 678.236,34.9375 673,38.5C 671.561,40.2746 670.561,42.2746 670,44.5C 669.5,89.4988 669.333,134.499 669.5,179.5C 666.956,179.896 664.789,179.229 663,177.5C 632.045,138.876 600.712,100.543 569,62.5C 568.049,96.8631 568.382,131.196 570,165.5C 571.474,169.641 574.307,172.474 578.5,174C 582.152,174.499 585.818,174.665 589.5,174.5C 589.5,175.5 589.5,176.5 589.5,177.5C 572.5,177.5 555.5,177.5 538.5,177.5C 538.5,176.5 538.5,175.5 538.5,174.5C 545.81,175.785 551.976,173.785 557,168.5C 557.333,167.5 557.667,166.5 558,165.5C 559.617,127.193 559.95,88.8596 559,50.5C 551.798,41.1488 542.298,36.4821 530.5,36.5C 530.5,34.8333 530.5,33.1667 530.5,31.5C 543.837,31.3334 557.171,31.5001 570.5,32C 600.046,68.0408 629.379,104.207 658.5,140.5 Z"/></g>
<g><path style="opacity:1" fill="#708615" d="M 696.5,31.5 C 734.5,31.5 772.5,31.5 810.5,31.5C 810.39,42.1851 810.723,52.8518 811.5,63.5C 809.833,63.5 808.167,63.5 806.5,63.5C 806.659,53.3073 802.325,45.8073 793.5,41C 775.214,39.5675 756.88,39.0675 738.5,39.5C 738.5,58.8333 738.5,78.1667 738.5,97.5C 752.171,97.6666 765.837,97.4999 779.5,97C 786.115,96.3835 790.281,92.8835 792,86.5C 793.043,83.2432 793.543,79.9099 793.5,76.5C 794.833,76.5 796.167,76.5 797.5,76.5C 797.5,93.1667 797.5,109.833 797.5,126.5C 796.167,126.5 794.833,126.5 793.5,126.5C 794.382,117.224 790.716,110.724 782.5,107C 767.905,105.55 753.239,105.05 738.5,105.5C 738.048,125.554 738.548,145.554 740,165.5C 741.214,167.049 742.714,168.215 744.5,169C 758.5,169.667 772.5,169.667 786.5,169C 794.269,168.365 800.769,165.198 806,159.5C 810.582,154.009 814.415,148.009 817.5,141.5C 819.074,140.369 820.741,140.202 822.5,141C 817.994,153.019 813.994,165.186 810.5,177.5C 772.5,177.5 734.5,177.5 696.5,177.5C 696.5,176.5 696.5,175.5 696.5,174.5C 702.533,175.035 708.199,173.868 713.5,171C 715.041,169.421 716.208,167.587 717,165.5C 717.667,124.833 717.667,84.1667 717,43.5C 715.923,40.087 713.756,37.587 710.5,36C 705.934,34.6908 701.267,34.1908 696.5,34.5C 696.5,33.5 696.5,32.5 696.5,31.5 Z"/></g>
<g><path style="opacity:1" fill="#6f8614" d="M 835.5,31.5 C 875.5,31.5 915.5,31.5 955.5,31.5C 955.944,42.4959 956.278,53.4959 956.5,64.5C 955.167,64.5 953.833,64.5 952.5,64.5C 952.369,50.3856 945.369,42.2189 931.5,40C 922.84,39.5002 914.173,39.3336 905.5,39.5C 905.039,81.53 905.539,123.53 907,165.5C 907.888,170.208 910.721,173.042 915.5,174C 919.152,174.499 922.818,174.665 926.5,174.5C 926.5,175.5 926.5,176.5 926.5,177.5C 905.5,177.5 884.5,177.5 863.5,177.5C 863.5,176.5 863.5,175.5 863.5,174.5C 869.602,175.267 875.269,174.101 880.5,171C 882.354,168.457 883.521,165.624 884,162.5C 884.5,121.501 884.667,80.5014 884.5,39.5C 874.828,39.3335 865.161,39.5002 855.5,40C 848.091,42.4084 842.924,47.2417 840,54.5C 838.957,57.7568 838.457,61.0901 838.5,64.5C 837.167,64.5 835.833,64.5 834.5,64.5C 834.6,53.4913 834.934,42.4913 835.5,31.5 Z"/></g>
<g><path style="opacity:1" fill="#6f8617" d="M 138.5,9.5 C 139.675,9.28099 140.675,9.61432 141.5,10.5C 143.483,13.6026 144.316,16.9359 144,20.5C 141.047,30.4482 135.38,38.4482 127,44.5C 124.85,34.0612 126.183,24.0612 131,14.5C 133.479,12.6859 135.979,11.0192 138.5,9.5 Z"/></g>
<g><path style="opacity:1" fill="#5a6f0f" d="M 160.5,30.5 C 168.97,29.1464 173.97,32.6464 175.5,41C 175,48.1667 171.167,52 164,52.5C 155.48,50.9772 152.147,45.9772 154,37.5C 155.694,34.6424 157.861,32.309 160.5,30.5 Z"/></g>
<g><path style="opacity:1" fill="#5a6e0e" d="M 36.5,30.5 C 49.1159,30.9426 52.9493,36.9426 48,48.5C 43.2114,52.9897 38.0448,53.4897 32.5,50C 26.3849,41.8375 27.7183,35.3375 36.5,30.5 Z"/></g>
<g><path style="opacity:1" fill="#6f8619" d="M 57.5,30.5 C 62.3956,38.0674 68.3956,44.734 75.5,50.5C 74.4425,54.2834 72.6092,57.6168 70,60.5C 62.2382,52.0604 58.0715,42.0604 57.5,30.5 Z"/></g>
<g><path style="opacity:1" fill="#fcfdfb" d="M 441.5,38.5 C 468.199,37.3636 480.366,50.0302 478,76.5C 473.943,89.5493 465.109,97.3826 451.5,100C 444.547,101.163 437.547,101.663 430.5,101.5C 430.167,81.822 430.5,62.1554 431.5,42.5C 435.013,41.3355 438.346,40.0022 441.5,38.5 Z"/></g>
<g><path style="opacity:1" fill="#6e8516" d="M 120.5,22.5 C 120.287,30.1655 120.621,37.9988 121.5,46C 118.049,48.7641 114.049,50.2641 109.5,50.5C 110.413,40.0198 114.079,30.6865 120.5,22.5 Z"/></g>
<g><path style="opacity:1" fill="#6d8416" d="M 81.5,21.5 C 89.6026,29.3834 93.6026,39.05 93.5,50.5C 89.9359,50.3124 86.6026,49.3124 83.5,47.5C 83.4323,40.909 83.2656,34.2423 83,27.5C 82.4954,25.4817 81.9954,23.4817 81.5,21.5 Z"/></g>
<g><path style="opacity:1" fill="#6f8619" d="M 145.5,30.5 C 145.967,41.9056 142.133,51.9056 134,60.5C 131.388,57.6114 129.555,54.2781 128.5,50.5C 135.602,45.0642 141.268,38.3975 145.5,30.5 Z"/></g>
<g><path style="opacity:1" fill="#889a3b" d="M 659.5,53.5 C 660.83,82.6694 660.83,112.003 659.5,141.5C 658.893,141.376 658.56,141.043 658.5,140.5C 659.498,111.671 659.831,82.6715 659.5,53.5 Z"/></g>
<g><path style="opacity:1" fill="#6e8515" d="M 121.5,52.5 C 122.376,52.3691 123.043,52.7025 123.5,53.5C 125.246,57.3267 127.246,60.9934 129.5,64.5C 125.037,67.8154 120.203,70.4821 115,72.5C 111.908,67.4786 110.741,62.1453 111.5,56.5C 115.162,55.7298 118.495,54.3965 121.5,52.5 Z"/></g>
<g><path style="opacity:1" fill="#6e8515" d="M 13.5,61.5 C 25.8845,62.6976 35.5512,68.531 42.5,79C 31.5748,80.7533 21.2414,79.0867 11.5,74C 9.76512,71.3632 8.43179,68.5299 7.5,65.5C 9.21868,63.6478 11.2187,62.3145 13.5,61.5 Z"/></g>
<g><path style="opacity:1" fill="#6e8515" d="M 183.5,61.5 C 188.324,60.9711 192.657,62.1378 196.5,65C 195.231,68.3721 193.564,71.5388 191.5,74.5C 181.995,79.1299 171.995,80.6299 161.5,79C 166.979,70.6716 174.313,64.8383 183.5,61.5 Z"/></g>
<g><path style="opacity:1" fill="#6f8619" d="M 80.5,52.5 C 84.0457,53.9593 87.7124,55.126 91.5,56C 92.5156,56.5194 93.1822,57.3527 93.5,58.5C 92.6162,63.4874 90.9495,68.1541 88.5,72.5C 83.2138,70.8587 78.5472,68.192 74.5,64.5C 76.9684,60.7085 78.9684,56.7085 80.5,52.5 Z"/></g>
<g><path style="opacity:1" fill="#6f8618" d="M 29.5,60.5 C 40.5672,59.9735 50.2338,63.6402 58.5,71.5C 55.5342,73.9884 52.2009,75.9884 48.5,77.5C 45.675,74.5048 43.0083,71.3381 40.5,68C 37.1512,64.9955 33.4845,62.4955 29.5,60.5 Z"/></g>
<g><path style="opacity:1" fill="#6f8517" d="M 169.5,59.5 C 171.199,59.3398 172.866,59.5065 174.5,60C 166.884,63.949 160.884,69.6157 156.5,77C 152.124,76.4858 148.124,74.8191 144.5,72C 151.803,65.6304 160.136,61.4637 169.5,59.5 Z"/></g>
<g><path style="opacity:1" fill="#6f8617" d="M 98.5,57.5 C 100.5,57.5 102.5,57.5 104.5,57.5C 105.266,62.9649 106.933,68.1315 109.5,73C 104.445,74.7633 99.4453,74.7633 94.5,73C 96.9582,68.125 98.2916,62.9584 98.5,57.5 Z"/></g>
<g><path style="opacity:1" fill="#6f8619" d="M 70.5,68.5 C 75.2409,71.9024 80.2409,74.9024 85.5,77.5C 83.07,81.7192 79.7366,85.0526 75.5,87.5C 73.2109,82.4187 70.5443,77.5854 67.5,73C 68.3146,71.3566 69.3146,69.8566 70.5,68.5 Z"/></g>
<g><path style="opacity:1" fill="#708619" d="M 132.5,68.5 C 134.145,69.4787 135.479,70.812 136.5,72.5C 133.146,77.2074 130.313,82.2074 128,87.5C 123.976,84.9758 120.809,81.6425 118.5,77.5C 123.571,74.9744 128.238,71.9744 132.5,68.5 Z"/></g>
<g><path style="opacity:1" fill="#6e8515" d="M 61.5,76.5 C 63.6237,77.0312 65.1237,78.3645 66,80.5C 67.7743,83.7148 69.2743,87.0482 70.5,90.5C 65.5458,93.3736 60.2124,95.0403 54.5,95.5C 54.0138,91.0526 52.6804,86.8859 50.5,83C 54.5095,81.2886 58.1762,79.1219 61.5,76.5 Z"/></g>
<g><path style="opacity:1" fill="#93ac19" d="M 91.5,78.5 C 98.4729,79.5902 105.473,79.7569 112.5,79C 116.333,84.1667 120.833,88.6667 126,92.5C 125.406,99.8274 125.406,107.161 126,114.5C 120.833,118.333 116.333,122.833 112.5,128C 105.996,127.38 99.4962,127.547 93,128.5C 88.0448,123.142 82.5448,118.309 76.5,114C 77.8333,107.333 77.8333,100.667 76.5,94C 82.3753,89.6256 87.3753,84.4589 91.5,78.5 Z"/></g>
<g><path style="opacity:1" fill="#6e8515" d="M 140.5,76.5 C 144.811,78.6557 149.145,80.8223 153.5,83C 151.264,86.8757 149.93,91.0424 149.5,95.5C 143.571,95.1357 138.238,93.3023 133.5,90C 135.206,85.1401 137.54,80.6401 140.5,76.5 Z"/></g>
<g><path style="opacity:1" fill="#6d8517" d="M 19.5,84.5 C 19.56,83.9569 19.8933,83.6236 20.5,83.5C 24.737,84.706 29.0703,85.3727 33.5,85.5C 37.5134,84.9943 41.5134,84.8277 45.5,85C 47.2085,88.2927 48.2085,91.7927 48.5,95.5C 37.5166,95.1741 27.8499,91.5074 19.5,84.5 Z"/></g>
<g><path style="opacity:1" fill="#6d8416" d="M 180.5,83.5 C 181.873,83.3433 183.207,83.51 184.5,84C 176.026,91.8246 166.026,95.4913 154.5,95C 155.439,91.5185 156.772,88.1852 158.5,85C 162.146,84.8859 165.812,85.0525 169.5,85.5C 173.428,85.5463 177.095,84.8796 180.5,83.5 Z"/></g>
<g><path style="opacity:1" fill="#596e0e" d="M 187.5,92.5 C 200.763,93.9265 204.097,100.427 197.5,112C 190.008,116.369 184.175,114.869 180,107.5C 178.289,100.254 180.789,95.2543 187.5,92.5 Z"/></g>
<g><path style="opacity:1" fill="#5a6f10" d="M 10.5,92.5 C 20.8603,92.3558 25.3603,97.3558 24,107.5C 20.2303,114.414 14.7303,116.247 7.5,113C 0.402337,104.908 1.40234,98.0746 10.5,92.5 Z"/></g>
<g><path style="opacity:1" fill="#6e8517" d="M 69.5,96.5 C 70.7498,96.5774 71.5831,97.244 72,98.5C 72.7927,102.423 72.626,106.256 71.5,110C 66.3176,108.56 60.9842,107.394 55.5,106.5C 55.5,104.5 55.5,102.5 55.5,100.5C 60.6216,100.39 65.2882,99.0564 69.5,96.5 Z"/></g>
<g><path style="opacity:1" fill="#6d8416" d="M 131.5,96.5 C 136.893,98.9315 142.56,100.265 148.5,100.5C 148.5,102.5 148.5,104.5 148.5,106.5C 142.732,107.423 137.065,108.756 131.5,110.5C 131.5,105.833 131.5,101.167 131.5,96.5 Z"/></g>
<g><path style="opacity:1" fill="#6f861a" d="M 44.5,111.5 C 46.1992,111.34 47.8659,111.506 49.5,112C 48.4817,116.284 46.6484,120.118 44,123.5C 35.3946,122.175 26.8946,122.342 18.5,124C 26.0812,117.375 34.7478,113.208 44.5,111.5 Z"/></g>
<g><path style="opacity:1" fill="#6f8516" d="M 148.5,111.5 C 149.772,116.046 151.439,120.546 153.5,125C 148.971,126.514 144.805,128.681 141,131.5C 137.722,127.279 135.222,122.612 133.5,117.5C 134.09,116.201 135.09,115.368 136.5,115C 140.543,113.509 144.543,112.342 148.5,111.5 Z"/></g>
<g><path style="opacity:1" fill="#6f861a" d="M 154.5,112.5 C 165.526,111.68 175.193,115.18 183.5,123C 175.491,122.272 167.491,122.439 159.5,123.5C 157,120.17 155.333,116.503 154.5,112.5 Z"/></g>
<g><path style="opacity:1" fill="#6e8514" d="M 54.5,111.5 C 60.3622,112.291 65.6956,114.291 70.5,117.5C 68.8587,122.786 66.192,127.453 62.5,131.5C 58.819,128.658 54.819,126.325 50.5,124.5C 52.6088,120.396 53.9421,116.063 54.5,111.5 Z"/></g>
<g><path style="opacity:1" fill="#6e8518" d="M 74.5,120.5 C 79.1776,122.334 82.8443,125.5 85.5,130C 80.2557,132.203 75.4223,135.036 71,138.5C 69.647,137.315 68.4803,135.981 67.5,134.5C 70.7357,130.27 73.069,125.603 74.5,120.5 Z"/></g>
<g><path style="opacity:1" fill="#6e8514" d="M 27.5,127.5 C 32.5988,127.175 37.5988,127.675 42.5,129C 35.7732,137.444 27.2732,143.278 17,146.5C 13.5955,145.646 10.4288,144.312 7.5,142.5C 8.51472,138.97 10.1814,135.803 12.5,133C 17.4337,130.637 22.4337,128.804 27.5,127.5 Z"/></g>
<g><path style="opacity:1" fill="#6f8615" d="M 164.5,127.5 C 174.803,126.858 184.303,129.191 193,134.5C 194.069,137.208 195.236,139.875 196.5,142.5C 191.131,146.797 185.465,147.297 179.5,144C 172.312,140.409 166.312,135.409 161.5,129C 162.737,128.768 163.737,128.268 164.5,127.5 Z"/></g>
<g><path style="opacity:1" fill="#6f8617" d="M 127.5,119.5 C 130.209,124.57 133.209,129.57 136.5,134.5C 135.52,135.981 134.353,137.315 133,138.5C 128.067,135.232 122.9,132.399 117.5,130C 121.037,126.631 124.371,123.131 127.5,119.5 Z"/></g>
<g><path style="opacity:1" fill="#6f861c" d="M 47.5,129.5 C 51.588,130.711 55.2546,132.711 58.5,135.5C 50.5297,143.547 40.8631,147.38 29.5,147C 37.3281,143.005 43.3281,137.171 47.5,129.5 Z"/></g>
<g><path style="opacity:1" fill="#6f8617" d="M 155.5,129.5 C 160.307,136.473 166.307,142.306 173.5,147C 164.243,147.359 155.91,144.693 148.5,139C 146.671,137.887 145.837,136.387 146,134.5C 149.181,132.662 152.347,130.995 155.5,129.5 Z"/></g>
<g><path style="opacity:1" fill="#6e8515" d="M 114.5,135.5 C 120.278,136.444 125.278,138.944 129.5,143C 127.114,146.948 124.614,150.781 122,154.5C 118.283,152.982 114.449,151.982 110.5,151.5C 110.812,145.901 112.145,140.567 114.5,135.5 Z"/></g>
<g><path style="opacity:1" fill="#6c8415" d="M 94.5,133.5 C 99.5111,133.334 104.511,133.501 109.5,134C 106.726,139.156 105.059,144.656 104.5,150.5C 102.712,150.785 101.045,150.452 99.5,149.5C 98.2307,144.026 96.564,138.693 94.5,133.5 Z"/></g>
<g><path style="opacity:1" fill="#6e8516" d="M 86.5,135.5 C 89.0495,135.561 90.5495,136.894 91,139.5C 92.4698,143.378 93.3031,147.378 93.5,151.5C 88.9168,151.528 84.7502,152.861 81,155.5C 79.0875,151.34 76.9209,147.34 74.5,143.5C 77.8745,139.818 81.8745,137.152 86.5,135.5 Z"/></g>
<g><path style="opacity:1" fill="#6f861a" d="M 133.5,146.5 C 141.757,154.357 145.591,164.024 145,175.5C 141.251,168.33 135.918,162.663 129,158.5C 129.075,154.007 130.575,150.007 133.5,146.5 Z"/></g>
<g><path style="opacity:1" fill="#5a6f0f" d="M 35.5,155.5 C 45.3203,154.493 50.1536,158.827 50,168.5C 47.4661,176.074 42.2995,178.574 34.5,176C 26.1957,168.683 26.529,161.85 35.5,155.5 Z"/></g>
<g><path style="opacity:1" fill="#5a6f0d" d="M 159.5,155.5 C 171.66,154.484 176.493,159.818 174,171.5C 168.553,177.29 162.553,177.957 156,173.5C 151.943,166.372 153.109,160.372 159.5,155.5 Z"/></g>
<g><path style="opacity:1" fill="#6e8517" d="M 91.5,156.5 C 92.7647,157.514 93.4313,159.014 93.5,161C 92.5056,170.819 88.6723,179.319 82,186.5C 82.6772,181.582 83.1772,176.582 83.5,171.5C 83.2608,167.484 82.9275,163.484 82.5,159.5C 85.6702,158.735 88.6702,157.735 91.5,156.5 Z"/></g>
<g><path style="opacity:1" fill="#6e8516" d="M 69.5,146.5 C 72.1118,149.546 74.1118,153.046 75.5,157C 68.2652,162.235 62.4319,168.735 58,176.5C 58.1917,165.115 62.025,155.115 69.5,146.5 Z"/></g>
<g><path style="opacity:1" fill="#6e8517" d="M 109.5,156.5 C 113.5,157.5 117.5,158.5 121.5,159.5C 120.12,168.606 120.286,177.606 122,186.5C 114.263,178.021 110.096,168.021 109.5,156.5 Z"/></g>
<g><path style="opacity:1" fill="#6e8515" d="M 126.5,163.5 C 135.663,169.468 141.663,177.801 144.5,188.5C 143.631,191.941 142.464,195.274 141,198.5C 135.171,197.266 131.171,193.933 129,188.5C 125.783,180.384 124.95,172.05 126.5,163.5 Z"/></g>
<g><path style="opacity:1" fill="#6e8514" d="M 76.5,163.5 C 78.9089,174.387 77.2422,184.721 71.5,194.5C 68.6066,195.74 65.7733,197.074 63,198.5C 59.4948,193.478 58.8281,188.145 61,182.5C 64.5476,174.791 69.7143,168.458 76.5,163.5 Z"/></g>
<g><path style="opacity:1" fill="#596e0e" d="M 97.5,181.5 C 111.732,181.14 115.732,187.307 109.5,200C 96.6676,205.493 90.8342,201.326 92,187.5C 93.3597,184.977 95.193,182.977 97.5,181.5 Z"/></g>
</svg>
